<svg xmlns="http://www.w3.org/2000/svg" version="1.0" preserveAspectRatio="xMidYMid meet" viewBox="170 89.98 248.5 177.92">
<metadata>
Created by potrace 1.16, written by Peter Selinger 2001-2019
</metadata>
<g transform="translate(0.000000,360.000000) scale(0.100000,-0.100000)" fill="#000000" stroke="none">
<path d="M3321 2688 c-2 -41 -34 -68 -81 -68 -31 0 -43 -5 -56 -25 -8 -13 -13 -29 -9 -35 4 -6 -14 -10 -52 -10 -64 0 -119 -21 -170 -64 l-33 -28 0 89 c0 48 -4 94 -9 102 -14 22 -229 28 -256 7 -19 -14 -19 -17 -4 -44 l16 -29 -86 1 c-76 0 -94 -3 -145 -28 -66 -32 -69 -44 -5 -20 29 11 82 17 159 19 99 2 115 4 118 19 6 29 44 36 116 21 37 -8 71 -17 76 -20 6 -3 10 -39 10 -80 l0 -74 -57 -16 c-32 -9 -67 -19 -78 -22 -38 -11 -152 -72 -183 -98 -90 -75 -95 -208 -15 -345 22 -36 28 -41 31 -25 11 56 90 95 209 103 l83 5 0 -34 0 -34 -98 -21 c-147 -33 -210 -60 -264 -114 -28 -27 -48 -56 -48 -69 0 -27 -22 -36 -51 -21 -21 12 -22 15 -16 134 8 148 26 224 82 341 62 128 155 235 285 328 37 26 -4 6 -95 -48 -188 -111 -381 -276 -470 -400 -47 -65 -125 -219 -125 -245 0 -9 -3 -19 -6 -22 -5 -5 -184 64 -337 131 -56 24 -57 24 -57 11 0 -6 70 -45 155 -87 128 -64 155 -81 155 -99 0 -16 29 -44 110 -104 124 -93 101 -51 214 -381 l67 -195 70 23 c155 52 316 51 822 -7 238 -28 558 -43 573 -27 3 3 -37 8 -88 12 -128 9 -255 28 -588 85 -361 63 -538 84 -660 77 -72 -3 -89 -2 -70 6 38 16 291 12 425 -7 66 -9 257 -39 425 -66 318 -52 534 -80 609 -80 32 0 53 7 78 26 69 53 117 119 124 174 4 24 0 26 -116 52 -110 25 -123 30 -151 62 -41 48 -80 130 -92 196 -20 111 16 214 114 319 31 34 50 61 43 61 -22 0 -191 -20 -226 -26 -29 -5 -33 -3 -33 15 0 20 5 21 98 21 l97 1 -36 19 c-71 38 -129 128 -129 203 0 41 18 78 55 113 l35 33 -37 -5 c-21 -3 -50 -7 -64 -9 -26 -4 -26 -2 -33 63 -3 37 -6 83 -6 103 l0 36 -78 2 c-92 2 -126 -14 -104 -48 14 -24 1 -28 -18 -6 -8 9 -30 15 -56 15 l-44 0 -1 53 c0 60 -16 150 -18 105z m-11 -177 l0 -98 -62 -23 c-90 -33 -133 -79 -141 -151 -10 -86 10 -175 51 -222 8 -9 12 -20 9 -23 -8 -9 -43 51 -68 116 -29 77 -29 164 2 226 21 42 69 88 135 131 23 15 -12 11 -193 -21 -68 -12 -123 -18 -123 -14 0 23 98 52 185 56 77 4 94 7 115 27 14 13 37 27 52 30 16 4 25 11 22 16 -5 9 4 49 12 49 2 0 4 -44 4 -99z m257 -3 l53 -23 0 -62 0 -62 -42 -12 c-65 -17 -103 -44 -123 -89 -16 -36 -17 -48 -7 -101 18 -97 68 -149 143 -149 24 0 29 -4 29 -23 0 -18 -9 -28 -38 -39 -37 -15 -39 -17 -51 -89 -20 -107 -17 -243 6 -304 15 -41 24 -51 51 -59 l32 -9 0 -104 c0 -95 -2 -104 -17 -99 -15 4 -240 46 -250 46 -2 0 -3 29 -3 65 0 36 4 65 9 65 7 0 128 -48 218 -87 7 -2 -3 26 -22 64 -52 101 -68 180 -62 293 3 53 14 122 25 157 23 74 25 73 -89 73 -64 0 -79 3 -79 15 0 12 17 15 90 15 50 0 90 3 90 6 0 4 -16 25 -36 46 -50 55 -74 113 -74 177 0 70 28 129 95 198 28 29 48 53 44 53 -4 0 -52 -11 -108 -24 l-100 -23 -7 44 c-3 24 -5 46 -2 48 2 2 30 -3 62 -11 63 -16 86 -14 86 11 0 21 16 19 77 -7z m-269 -544 c-2 -9 -21 -22 -42 -29 -22 -8 -51 -22 -65 -33 -68 -49 -79 -216 -23 -335 33 -70 34 -72 95 -82 l37 -6 0 -69 0 -69 -32 6 c-58 11 -137 44 -169 70 -16 14 -28 27 -25 30 2 2 45 -16 94 -41 l91 -46 -50 79 c-88 139 -119 272 -88 386 14 53 70 147 85 141 6 -2 26 -1 45 4 50 12 51 11 47 -6z m-941 -239 c116 -20 290 -66 476 -126 153 -49 160 -53 173 -85 20 -47 17 -55 -6 -14 -18 35 -24 38 -197 93 -165 53 -294 88 -318 86 -5 0 32 -14 84 -30 51 -17 91 -32 90 -34 -2 -1 -35 5 -74 15 -82 22 -144 26 -80 6 22 -7 54 -20 70 -30 17 -9 21 -14 10 -11 -64 20 -134 35 -165 35 l-35 -1 49 -19 c69 -27 77 -40 15 -24 -76 20 -127 18 -131 -3 -6 -33 10 -149 36 -252 14 -56 26 -105 25 -109 0 -4 -29 75 -65 175 -65 182 -65 182 -45 202 17 17 18 25 10 53 -5 18 -18 45 -29 61 l-21 27 23 0 c13 0 60 -7 105 -15z m1421 -293 c69 -33 72 -36 59 -56 -32 -48 -145 -114 -169 -99 -5 2 -8 49 -8 104 0 116 -9 113 118 51z"/>
<path d="M2100 1165 c-41 -25 -93 -48 -115 -52 l-40 -6 30 -8 c40 -11 89 3 150 44 56 38 85 50 85 38 0 -5 -6 -11 -14 -14 -8 -3 -20 -25 -27 -49 -22 -78 -49 -95 -164 -108 l-70 -7 75 -2 c98 -1 142 12 178 53 47 54 62 58 126 36 l57 -19 -53 60 c-29 34 -60 65 -70 70 -33 18 -74 8 -148 -36z"/>
<path d="M3975 1093 c-80 -23 -111 -26 -280 -27 -104 -2 -201 -6 -214 -11 -14 -4 -68 -10 -120 -14 l-96 -6 45 -25 c41 -22 58 -24 200 -26 124 -2 168 -7 220 -23 36 -12 81 -21 100 -20 29 0 21 5 -45 25 -57 19 -115 28 -205 33 l-125 8 117 1 c96 2 135 -3 215 -23 133 -33 238 -47 298 -39 89 11 85 23 -8 24 -94 0 -213 22 -243 45 -18 14 -18 14 1 15 12 0 65 14 120 31 55 17 129 37 165 44 l65 13 -60 0 c-34 0 -99 -11 -150 -25z"/>
<path d="M2710 1093 c-19 -2 -88 -10 -152 -19 -65 -8 -150 -15 -190 -15 l-73 0 40 -25 c75 -46 125 -54 324 -54 178 0 191 -2 285 -30 59 -18 120 -30 150 -29 l51 1 -40 9 c-22 5 -82 23 -133 39 -86 28 -104 30 -260 32 -129 1 -152 3 -102 8 163 19 255 12 431 -30 91 -22 203 -44 248 -48 92 -9 239 2 255 19 8 8 2 10 -24 6 -47 -6 -247 9 -307 24 -26 7 -95 32 -151 56 -141 60 -210 71 -352 56z"/>
</g>
</svg>